<?xml version="1.0" encoding="UTF-8" standalone="no"?>
<!-- Created with Inkscape (http://www.inkscape.org/) -->

<svg
   xmlns:dc="http://purl.org/dc/elements/1.1/"
   xmlns:cc="http://creativecommons.org/ns#"
   xmlns:rdf="http://www.w3.org/1999/02/22-rdf-syntax-ns#"
   xmlns:svg="http://www.w3.org/2000/svg"
   xmlns="http://www.w3.org/2000/svg"
   xmlns:sodipodi="http://sodipodi.sourceforge.net/DTD/sodipodi-0.dtd"
   xmlns:inkscape="http://www.inkscape.org/namespaces/inkscape"
   width="541.80798mm"
   height="122.34113mm"
   viewBox="0 0 1919.7921 433.49217"
   id="svg2"
   version="1.1"
   inkscape:version="0.91 r13725"
   sodipodi:docname="Horizontal Rule - Bunnies.svg">
  <defs
     id="defs4" />
  <sodipodi:namedview
     id="base"
     pagecolor="#ffffff"
     bordercolor="#666666"
     borderopacity="1.0"
     inkscape:pageopacity="0.0"
     inkscape:pageshadow="2"
     inkscape:zoom="0.044194174"
     inkscape:cx="959.48509"
     inkscape:cy="223.49222"
     inkscape:document-units="px"
     inkscape:current-layer="layer1"
     showgrid="false"
     fit-margin-top="0"
     fit-margin-left="0"
     fit-margin-right="0"
     fit-margin-bottom="0"
     inkscape:window-width="1366"
     inkscape:window-height="712"
     inkscape:window-x="0"
     inkscape:window-y="27"
     inkscape:window-maximized="1" />
  <metadata
     id="metadata7">
    <rdf:RDF>
      <cc:Work
         rdf:about="">
        <dc:format>image/svg+xml</dc:format>
        <dc:type
           rdf:resource="http://purl.org/dc/dcmitype/StillImage" />
        <dc:title></dc:title>
      </cc:Work>
    </rdf:RDF>
  </metadata>
  <g
     inkscape:label="Layer 1"
     inkscape:groupmode="layer"
     id="layer1"
     transform="translate(599.48511,-303.36224)">
    <path
       style="fill:#000000"
       d="m 235.94135,681.4521 c -1.94208,-1.45584 -4.80713,-1.97967 -12.83809,-2.34724 -10.08695,-0.46168 -10.47562,-0.56888 -16,-4.4132 -3.11405,-2.16701 -7.52103,-4.47971 -9.79328,-5.13934 -5.76103,-1.67239 -6.68097,-3.1765 -6.55254,-10.71346 0.097,-5.69473 -0.18898,-6.74147 -2.40312,-8.79454 -2.41574,-2.24 -2.47414,-2.57348 -1.5048,-8.59254 1.37663,-8.54811 3.19181,-11.22918 13.60552,-20.09572 9.81906,-8.36024 14.01135,-14.82002 14.80976,-22.81996 0.30745,-3.08056 1.30638,-5.23992 3.46956,-7.5 3.03134,-3.16715 5.79253,-10.7056 4.83512,-13.20059 -0.27798,-0.72439 -2.57678,-2.53098 -5.10846,-4.01464 -3.68835,-2.16152 -6.43286,-2.83852 -13.81135,-3.4069 -9.52723,-0.73391 -13.13532,-2.01584 -18.58844,-6.60434 -2.89576,-2.43663 -3.11988,-3.08575 -3.11988,-9.03631 0,-5.11778 0.41116,-6.82227 2.03815,-8.44927 1.59771,-1.5977 1.8984,-2.78311 1.39145,-5.48543 -0.47173,-2.51452 -0.0762,-4.54187 1.46184,-7.49264 1.15971,-2.22495 2.10856,-4.8415 2.10856,-5.81456 0,-2.67917 2.03611,-4.16921 5.69712,-4.16921 2.32888,0 4.39919,-0.98543 7.05,-3.35568 5.01537,-4.48456 7.42833,-5.64432 11.74337,-5.64432 3.33114,0 3.7818,0.36133 5.61253,4.5 1.09481,2.475 2.63414,4.5 3.42072,4.5 2.25686,0 4.65368,-4.44493 3.93686,-7.30097 -0.79295,-3.15934 0.31792,-5.25784 8.04581,-15.19903 18.27339,-23.50699 46.81153,-44.17065 73.73928,-53.39253 20.37738,-6.97859 27.36892,-8.13858 54.25431,-9.00155 21.32531,-0.6845 22.16147,-0.78971 27.26517,-3.43057 2.89585,-1.49843 10.09585,-3.84325 16,-5.2107 5.90416,-1.36745 11.63483,-2.87545 12.73483,-3.35112 1.19368,-0.51617 2.74952,-3.03157 3.85911,-6.23918 1.0225,-2.95589 4.06,-9.03684 6.75,-13.51323 7.26282,-12.08597 7.13591,-12.71323 -5.25794,-25.98962 -11.4867,-12.30463 -16.35417,-20.87851 -17.89215,-31.51635 -1.03702,-7.17284 -1.2776,-27.86138 -0.35203,-30.27336 1.525,-3.9741 12.24602,-0.15383 22.26152,7.93254 9.20272,7.43014 11.12825,7.9895 11.1385,3.23567 0.008,-3.90654 3.37774,-18.34173 5.42455,-23.24045 0.80651,-1.93025 2.10464,-3.50955 2.88473,-3.50955 2.60699,0 16.06145,15.24562 19.87096,22.51634 6.16048,11.75769 7.84622,19.55626 8.71629,40.32326 0.54687,13.05275 1.13464,18.56596 2.03891,19.12483 0.6988,0.43188 3.68833,1.0694 6.64339,1.41671 14.60659,1.71672 24.34474,9.13659 30.47594,23.22079 1.89102,4.34394 6.4819,13.84287 10.20196,21.10874 4.0296,7.87046 7.01858,15.06995 7.39417,17.81019 0.59554,4.34489 0.41794,4.81713 -3.20803,8.53047 -2.44221,2.50104 -5.13187,4.16964 -7.39417,4.58715 -1.95564,0.36092 -7.60571,2.24516 -12.55571,4.1872 -7.62038,2.98973 -10.14968,3.51681 -16.5,3.43846 -4.125,-0.0509 -8.36123,-0.24366 -9.41385,-0.42834 -2.05528,-0.36062 -4.92465,3.54265 -6.09377,8.2895 l -0.6466,2.6253 8.44159,0.70318 c 5.44174,0.45329 9.53625,1.36888 11.52195,2.57645 1.69419,1.0303 7.31678,7.20566 12.49464,13.72302 10.70518,13.47457 15.74848,18.18197 23.94604,22.35116 l 5.75,2.92438 0,4.87482 c 0,3.29424 -0.61422,5.63335 -1.89436,7.21426 -1.73901,2.14758 -2.66164,2.34119 -11.25,2.36079 l -9.35564,0.0213 -0.5,6.5 -0.5,6.5 -11.63672,0.28076 c -11.28795,0.27234 -11.73004,0.20224 -14.75,-2.3389 -1.71231,-1.44081 -3.12017,-3.36715 -3.12859,-4.28075 -0.0276,-2.99078 -1.528,-4.15161 -7.31418,-5.65871 -8.10324,-2.11063 -14.70546,-5.70656 -22.28884,-12.13975 -12.80073,-10.85919 -13.44924,-10.86067 -34.61768,-0.0788 -23.93369,12.19033 -26.76354,12.99274 -46.88409,13.29405 -20.17622,0.30214 -22.00418,0.98007 -29.21874,10.83623 -2.66137,3.63582 -5.69887,7.07085 -6.75,7.6334 -1.2749,0.6823 -1.91116,2.09623 -1.91116,4.24709 0,2.14126 -0.67178,3.6438 -2,4.47329 -1.51369,0.94531 -2,2.33202 -2,5.70303 0,6.66338 -3.3879,14.58299 -8.39784,19.63096 -8.35063,8.41402 -20.7477,14.04478 -42.60216,19.34994 -23.77521,5.77142 -38.27164,17.73729 -44.01476,36.33135 -2.78279,9.00963 -2.62397,11.83313 0.76476,13.5961 5.46258,2.84186 10.25,10.10255 10.25,15.54535 0,2.29156 -0.66607,3.36434 -2.75,4.42922 -4.9604,2.53475 -8.53824,2.76883 -11.25,0.73601 z"
       id="path3433"
       inkscape:connector-curvature="0" />
    <g
       id="g3488"
       transform="matrix(0.74102558,0,0,0.74102558,-688.41853,389.73485)">
      <title
         id="title3490">Layer 1</title>
      <path
         id="rabbit"
         d="m 326.39862,76.575531 c -6.784,-0.106255 -12.04721,3.228378 -12.04721,10.027924 0,8.36866 -2.01599,43.934175 0.97348,55.441035 2.9895,11.5069 14.95319,28.3406 23.91193,39.76041 6.9754,8.89169 3.01181,30.32156 3.01181,40.78238 0,10.46078 -2.00721,18.8423 -5.9932,18.8423 -3.98599,0 -9.94742,4.18298 -13.93338,8.36725 -3.98593,4.18432 -7.97742,9.42186 -12.95987,5.23752 -4.98251,-4.18434 -13.96124,-8.35875 -29.90512,-11.49698 -15.94394,-3.13825 -42.83935,-0.017 -59.77975,6.25946 -16.94046,6.2765 -52.82666,40.80369 -62.79155,56.49492 -9.96499,15.69119 -10.94458,63.79916 -9.94811,71.12167 0.99652,7.32257 -2.01463,12.5679 -6.9971,6.29141 -4.98242,-6.27652 -8.94415,-3.12973 -8.94415,-3.12973 0,0 -4.98923,10.4502 -4.98923,15.68064 0,5.23034 1.97743,10.44308 1.97743,10.44308 0,0 -7.97063,6.29068 -7.97063,10.47504 0,4.18426 7.97739,11.51187 12.95987,17.78839 4.9825,6.27646 21.92577,18.83447 28.90116,17.78842 6.97549,-1.04611 19.93335,-0.009 24.91581,3.1297 4.98252,3.13828 16.93511,7.3212 31.88256,8.36725 14.94739,1.04611 56.78897,4.18366 67.75039,4.18366 10.96146,0 13.97065,-2.08298 18.95307,-7.31336 4.98251,-5.23038 -4.00763,-11.51974 -6.9971,-18.84231 -2.9895,-7.32251 9.97784,-5.21338 13.96377,-6.2595 3.98603,-1.04605 14.95905,-8.36724 21.93448,-8.36724 6.97547,0 5.96894,7.31265 14.93735,11.497 8.96844,4.1843 21.91757,17.77207 31.88254,19.86426 9.9649,2.0921 32.8851,0.009 40.85711,-3.12976 7.97196,-3.13824 6.97544,-10.45019 0,-15.68057 -6.97549,-5.23038 -23.9038,-14.6658 -26.89328,-19.89621 -2.98953,-5.23038 -3.97857,-11.50409 1.00391,-16.7345 4.98248,-5.23044 9.94675,-3.12909 17.9187,-7.31335 7.97199,-4.18436 10.95203,-16.7573 10.95203,-24.07984 0,-7.32257 0.94854,-15.28103 3.98532,-19.86425 2.54474,-3.84055 3.53302,-16.09449 3.67493,-24.46308 0.15152,-8.93631 -3.66684,-11.0889 -6.65632,-16.3193 -2.98947,-5.23032 2.98075,-12.55088 6.96674,-12.55088 3.98596,0 21.92566,-3.15316 28.90109,-6.29138 6.97547,-3.13821 13.97062,-16.74942 18.95313,-23.02594 4.98242,-6.27643 0.9823,-19.86357 -5.99317,-24.04785 -6.97552,-4.18433 -6.98098,-15.70342 -12.95996,-23.02594 -5.97894,-7.32257 -12.94366,-23.00107 -18.9226,-28.23148 -5.97895,-5.23042 -19.93338,-9.42114 -24.91584,-9.42114 -4.98251,0 -7.97067,6.6e-4 -7.97067,-4.18362 0,-4.18436 -1.0039,-9.39566 -1.0039,-18.81037 0,-9.41475 -11.25235,-49.78749 -25.88935,-74.283322 -3.05359,-5.110252 -8.00668,-3.930756 -13.96384,-2.10778 -3.94451,1.207054 -5.96273,3.167419 -5.96273,16.766442 0,13.59907 -7.96997,-0.0228 -11.95597,-7.345307 -3.98599,-7.322556 -10.98855,-15.696228 -19.95703,-17.788399 -1.68158,-0.392258 -3.302,-0.58226 -4.86755,-0.606773 l 0,0 z"
         inkscape:connector-curvature="0"
         style="fill:#000000" />
    </g>
    <path
       style="fill:#000000"
       d="m 1187.0301,736.62229 c -1.2639,-0.25011 -3.4353,-1.53101 -4.8256,-2.84643 -3.5869,-3.39395 -3.3978,-7.64657 0.6236,-14.02445 2.033,-3.22428 2.8523,-5.3581 2.3087,-6.013 -0.4633,-0.55833 -3.1992,-1.54256 -6.0797,-2.1872 -2.8805,-0.64463 -7.4131,-2.61671 -10.0725,-4.38242 l -4.8352,-3.21037 -2.6638,1.89683 c -1.4651,1.04325 -4.2038,3.77615 -6.086,6.0731 -1.8822,2.29695 -7.2292,7.00039 -11.8823,10.45208 -7.1033,5.26931 -9.6737,6.60327 -16.0272,8.31764 -9.6534,2.60475 -18.7951,2.12407 -29.6067,-1.55673 -4.8597,-1.65449 -5.0716,-1.86555 -5.7933,-5.76957 -0.9084,-4.91418 -0.3231,-12.33566 1.2434,-15.76542 0.6809,-1.49078 3.2531,-3.6969 6.2921,-5.3965 9.0072,-5.03752 13.8155,-8.40309 15.3491,-10.74356 1.4823,-2.26226 1.4398,-2.32641 -6.7428,-10.1905 -4.529,-4.35264 -8.9308,-8.99602 -9.7818,-10.31863 -1.0177,-1.58169 -1.8552,-5.91341 -2.4469,-12.65628 -0.6278,-7.15461 -1.7309,-12.65079 -3.6514,-18.19351 -1.5136,-4.36809 -2.7519,-8.71961 -2.7519,-9.67006 0,-0.95045 1.4477,-6.00966 3.217,-11.2427 1.7694,-5.23303 3.2171,-10.37605 3.2171,-11.42891 0,-2.24068 -4.1435,-4.70268 -7.997,-4.75171 -4.7968,-0.0611 -13.3106,-2.5905 -16.7562,-4.97829 -5.0476,-3.49801 -7.7724,-6.64876 -11.9491,-13.81701 -5.1791,-8.88869 -5.1683,-13.1664 0.055,-21.81145 2.0875,-3.45498 5.131,-9.97016 6.7633,-14.47817 3.412,-9.42294 7.0742,-15.61444 13.9494,-23.58337 6.1482,-7.12632 7.4433,-7.76388 23.3956,-11.51784 l 3.3249,-0.78243 0.4961,-11.71659 c 0.4963,-11.72406 3.1509,-26.60107 7.1749,-40.21033 3.6763,-12.43352 12.6501,-30.03055 16.5593,-32.4719 3.6682,-2.29082 8.9442,1.96694 12.3134,9.93688 1.0525,2.48992 2.1797,4.79313 2.5048,5.11826 0.3252,0.32513 3.6871,-2.10887 7.4709,-5.40889 8.2457,-7.19132 11.3032,-8.88511 16.0387,-8.88511 6.7444,0 9.6052,6.09496 9.9012,21.09449 0.3875,19.63899 -4.9127,40.07603 -12.809,49.39058 -1.3649,1.61005 -4.1859,6.15985 -6.2689,10.11067 l -3.7872,7.18333 -0.7309,13.78728 c -1.0521,19.84472 -0.3976,22.63528 6.5297,27.84205 2.2749,1.7099 5.1074,3.93289 6.2945,4.93998 3.0206,2.56248 7.5971,3.07734 12.7483,1.43419 2.4176,-0.77115 7.4977,-2.10009 11.2892,-2.95319 3.7915,-0.85311 7.6175,-1.72179 8.5022,-1.9304 0.8846,-0.20863 2.5155,-0.57775 3.6241,-0.82027 2.7773,-0.60758 21.6932,2.82255 28.6132,5.1886 8.4478,2.88842 13.3522,5.57291 21.8827,11.97764 14.7719,11.09088 26.7554,25.5652 33.1869,40.08502 3.4476,7.78324 6.0101,20.50694 6.6073,32.80706 1.0723,22.08501 1.4784,23.04207 8.6637,20.41795 4.1774,-1.52562 4.3097,-1.51725 5.8821,0.37211 0.8847,1.06306 1.6085,2.89609 1.6085,4.0734 0,1.80231 0.535,2.18564 3.386,2.42583 2.848,0.23996 3.497,0.70383 4.0852,2.9197 0.3846,1.44894 0.2801,4.90223 -0.2323,7.674 -0.7504,4.05888 -0.6511,5.74092 0.5105,8.64378 0.7931,1.98233 1.4421,4.59986 1.4421,5.81673 0,3.07291 -5.7248,13.75566 -8.8799,16.57052 -7.1784,6.404 -21.1758,10.34606 -32.8518,9.25192 -6.2671,-0.58727 -7.5263,-0.38078 -16.7607,2.74857 -8.7509,2.96553 -12.1989,3.5873 -27.9079,5.03263 -19.3576,1.781 -43.173,2.86332 -46.8768,2.13037 z"
       id="path3567"
       inkscape:connector-curvature="0" />
  </g>
</svg>
